<svg width="1065" height="1202" viewBox="0 0 1065 1202" fill="none" xmlns="http://www.w3.org/2000/svg">
<path d="M1064 451.813V1200L873.59 993.085V487.797C782.133 165.432 443.292 274.888 404.31 426.322L269.374 274.888C599.219 -122.447 1064 192.422 1064 451.813Z" fill="url(#paint0_linear_280_14)"/>
<path d="M1064 295.877V2L923.066 175.927C977.041 208.314 1021.52 286.382 1037.01 321.368L1064 295.877Z" fill="url(#paint1_linear_280_14)"/>
<path d="M530.251 907.622V1200L1 610.747V321.368L530.251 907.622Z" fill="url(#paint2_linear_280_14)"/>
<path d="M765.64 340.858C796.626 360.35 859.196 424.523 861.595 525.281L539.247 889.628L1 295.877V2L539.247 600.249L765.64 340.858Z" fill="url(#paint3_linear_280_14)"/>
<path d="M1064 451.813V1200L873.59 993.085V487.797C782.133 165.432 443.292 274.888 404.31 426.322L269.374 274.888C599.219 -122.447 1064 192.422 1064 451.813Z" stroke="black"/>
<path d="M1064 295.877V2L923.066 175.927C977.041 208.314 1021.52 286.382 1037.01 321.368L1064 295.877Z" stroke="black"/>
<path d="M530.251 907.622V1200L1 610.747V321.368L530.251 907.622Z" stroke="black"/>
<path d="M765.64 340.858C796.626 360.35 859.196 424.523 861.595 525.281L539.247 889.628L1 295.877V2L539.247 600.249L765.64 340.858Z" stroke="black"/>
<defs>
<linearGradient id="paint0_linear_280_14" x1="249.883" y1="532.778" x2="195.906" y2="580.755" gradientUnits="userSpaceOnUse">
<stop offset="0.355769" stop-color="white"/>
<stop offset="0.673077" stop-color="#00EEFF"/>
</linearGradient>
<linearGradient id="paint1_linear_280_14" x1="249.883" y1="532.778" x2="195.906" y2="580.755" gradientUnits="userSpaceOnUse">
<stop offset="0.355769" stop-color="white"/>
<stop offset="0.673077" stop-color="#00EEFF"/>
</linearGradient>
<linearGradient id="paint2_linear_280_14" x1="249.883" y1="532.778" x2="195.906" y2="580.755" gradientUnits="userSpaceOnUse">
<stop offset="0.355769" stop-color="white"/>
<stop offset="0.673077" stop-color="#00EEFF"/>
</linearGradient>
<linearGradient id="paint3_linear_280_14" x1="249.883" y1="532.778" x2="195.906" y2="580.755" gradientUnits="userSpaceOnUse">
<stop offset="0.355769" stop-color="white"/>
<stop offset="0.673077" stop-color="#00EEFF"/>
</linearGradient>
</defs>
</svg>
