<svg width="600" height="600" viewBox="0 0 600 600" fill="none" xmlns="http://www.w3.org/2000/svg">
<g clip-path="url(#clip0_123_96)">
<rect width="600" height="600" rx="300" fill="black"/>
<path d="M660.001 -60H-59.9999V660.001H660.001V-60Z" fill="black"/>
<path d="M660.001 -60H-59.9999V660.001H660.001V-60Z" fill="black"/>
<g filter="url(#filter0_f_123_96)">
<rect x="155" y="148" width="340.24" height="370.8" rx="170.12" fill="url(#paint0_linear_123_96)"/>
</g>
<mask id="mask0_123_96" style="mask-type:luminance" maskUnits="userSpaceOnUse" x="116" y="127" width="368" height="346">
<path d="M116 127H483.865V472.51H116V127Z" fill="white"/>
</mask>
<g mask="url(#mask0_123_96)">
<path fill-rule="evenodd" clip-rule="evenodd" d="M116.044 141.311V170.368C116.044 175.375 118.521 179.672 122.861 182.181L293.53 280.721C297.859 283.219 302.824 283.219 307.164 280.721L477.833 182.181C482.162 179.672 484.65 175.375 484.65 170.368V141.311C484.65 136.314 482.173 132.016 477.833 129.508C473.503 127.01 468.549 126.999 464.209 129.497L307.153 219.929C302.824 222.427 297.87 222.427 293.54 219.929L136.484 129.497C132.144 126.999 127.18 127.01 122.85 129.508C118.521 132.016 116.044 136.314 116.044 141.311ZM347.124 311.663L372.508 326.323C376.848 328.822 381.812 328.822 386.152 326.323L411.536 311.663C415.876 309.164 420.841 309.164 425.17 311.663C429.51 314.161 431.987 318.469 431.987 323.476V367.437C431.987 372.444 429.51 376.742 425.17 379.251C420.841 381.749 415.876 381.749 411.536 379.251L136.495 220.458C132.155 217.949 127.19 217.949 122.861 220.458C118.521 222.956 116.044 227.254 116.044 232.261V458.642C116.044 463.659 118.521 467.957 122.861 470.455C127.19 472.964 132.155 472.964 136.495 470.455L253.559 402.867C257.899 400.358 260.376 396.061 260.376 391.054C260.376 386.047 257.899 381.749 253.559 379.251L228.175 364.59C223.846 362.092 218.881 362.092 214.541 364.59L189.157 379.251C184.817 381.749 179.853 381.749 175.513 379.251C171.183 376.742 168.696 372.444 168.696 367.437V323.476C168.696 318.469 171.183 314.161 175.513 311.663C179.853 309.154 184.817 309.164 189.157 311.663L464.199 470.455C468.528 472.964 473.493 472.964 477.833 470.455C482.162 467.957 484.65 463.659 484.65 458.642V232.261C484.65 227.254 482.162 222.956 477.833 220.458C473.493 217.949 468.528 217.949 464.199 220.458L347.124 288.046C342.794 290.545 340.307 294.842 340.307 299.849C340.307 304.856 342.794 309.164 347.124 311.663Z" fill="white"/>
</g>
</g>
<defs>
<filter id="filter0_f_123_96" x="2" y="-5" width="646.24" height="676.8" filterUnits="userSpaceOnUse" color-interpolation-filters="sRGB">
<feFlood flood-opacity="0" result="BackgroundImageFix"/>
<feBlend mode="normal" in="SourceGraphic" in2="BackgroundImageFix" result="shape"/>
<feGaussianBlur stdDeviation="76.5" result="effect1_foregroundBlur_123_96"/>
</filter>
<linearGradient id="paint0_linear_123_96" x1="155" y1="235.424" x2="574.805" y2="368.851" gradientUnits="userSpaceOnUse">
<stop offset="0.309" stop-color="#00D0FF"/>
<stop offset="0.474" stop-color="#6506BD"/>
<stop offset="0.879" stop-color="#B300FF"/>
</linearGradient>
<clipPath id="clip0_123_96">
<rect width="600" height="600" rx="300" fill="white"/>
</clipPath>
</defs>
</svg>
